<?xml version="1.0" standalone="no"?>
<!DOCTYPE svg PUBLIC "-//W3C//DTD SVG 20010904//EN"
 "http://www.w3.org/TR/2001/REC-SVG-20010904/DTD/svg10.dtd">
<svg version="1.0" xmlns="http://www.w3.org/2000/svg"
 width="512.000000pt" height="512.000000pt" viewBox="0 0 512.000000 512.000000"
 preserveAspectRatio="xMidYMid meet">
<metadata>
Created by potrace 1.14, written by Peter Selinger 2001-2017
</metadata>
<g transform="translate(0.000000,512.000000) scale(0.100000,-0.100000)"
fill="#000000" stroke="none">
<path d="M2360 5072 c0 -5 -28 -8 -62 -7 -64 2 -93 -8 -81 -29 4 -7 1 -6 -9 1
-8 7 -19 9 -23 5 -5 -4 -5 -1 -1 6 4 7 12 10 17 7 5 -4 9 -2 9 3 0 6 -11 9
-24 8 -16 -1 -22 -5 -18 -16 5 -13 4 -13 -13 0 -11 9 -16 10 -11 3 4 -7 4 -13
-1 -14 -4 0 -18 -2 -30 -3 -13 -2 -23 2 -23 7 0 5 -7 4 -15 -3 -12 -10 -15
-10 -15 1 0 10 -3 10 -8 3 -4 -6 -24 -11 -44 -10 -24 2 -35 -1 -31 -8 4 -6 -1
-5 -10 3 -13 10 -17 10 -17 1 0 -9 -4 -9 -12 -2 -25 19 -85 4 -62 -16 4 -4 5
-2 1 4 -3 6 4 10 18 10 14 0 23 -2 20 -4 -2 -2 -5 -2 -8 0 -2 2 -11 -3 -19
-10 -13 -10 -19 -10 -32 3 -9 9 -16 12 -16 7 0 -6 -7 -13 -16 -16 -14 -5 -15
-4 -4 9 11 13 9 15 -11 11 -13 -3 -28 -5 -32 -5 -5 -1 -5 -6 -1 -12 4 -8 1 -8
-13 -1 -10 6 -24 7 -31 4 -6 -4 -43 -6 -82 -5 -52 2 -69 0 -64 -9 4 -6 -3 -4
-16 5 -22 15 -26 15 -41 1 -12 -11 -19 -12 -24 -4 -5 8 -11 5 -21 -7 -11 -14
-13 -14 -9 -2 6 17 -19 20 -43 5 -7 -4 -12 -2 -12 6 -1 7 -8 2 -16 -12 -8 -14
-13 -17 -10 -7 3 9 2 17 -2 18 -4 0 -15 2 -24 4 -10 2 -20 -1 -24 -6 -3 -5
-10 -7 -15 -4 -5 4 -12 0 -15 -9 -3 -8 -14 -13 -26 -11 -12 3 -27 -3 -35 -13
-12 -16 -13 -16 -6 2 5 15 3 17 -7 11 -22 -14 -61 -15 -54 -3 4 7 2 8 -4 4 -7
-4 -12 -14 -12 -22 0 -8 -5 -12 -10 -9 -6 4 -7 11 -4 17 4 7 2 8 -4 4 -7 -4
-12 -15 -13 -24 0 -11 -3 -12 -6 -4 -2 6 -9 12 -14 12 -6 0 -7 -6 -3 -12 5 -9
3 -9 -9 1 -14 11 -18 11 -23 -3 -6 -15 -7 -15 -19 0 -8 12 -14 13 -19 6 -4 -6
-13 -9 -20 -6 -8 3 -16 1 -20 -4 -6 -11 24 -9 44 3 12 7 13 6 3 -7 -7 -8 -25
-15 -40 -14 -16 1 -35 -7 -46 -19 -9 -11 -16 -15 -15 -8 3 11 0 13 -28 13 -8
0 -13 -4 -9 -9 3 -5 1 -12 -5 -16 -5 -3 -10 -1 -10 5 0 6 -12 3 -27 -7 -15
-10 -24 -13 -21 -8 3 6 -6 10 -22 10 -18 0 -26 -4 -23 -12 3 -7 10 -10 16 -6
5 3 7 1 4 -5 -4 -5 -17 -8 -29 -4 -16 4 -19 2 -13 -8 6 -9 4 -11 -5 -5 -8 5
-18 1 -28 -11 -13 -18 -14 -18 -8 6 7 24 6 24 -8 6 -14 -17 -29 -22 -75 -25
-7 -1 -11 -7 -8 -15 4 -10 1 -13 -8 -9 -8 3 -12 10 -8 16 3 6 1 7 -6 3 -6 -4
-9 -11 -6 -16 8 -13 -18 -18 -40 -7 -11 5 -17 6 -13 2 12 -12 -19 -35 -47 -35
-14 0 -28 -7 -32 -16 -3 -9 -13 -14 -24 -11 -12 3 -17 1 -12 -6 4 -6 0 -8 -10
-4 -15 6 -21 -2 -19 -24 1 -3 -12 -5 -29 -4 -16 1 -29 -3 -29 -8 0 -5 -7 -4
-15 3 -13 11 -14 10 -9 -5 6 -14 4 -16 -6 -10 -9 6 -12 4 -8 -6 4 -10 -1 -15
-13 -16 -12 -1 -17 3 -13 10 3 7 -7 -1 -21 -18 -15 -16 -24 -24 -20 -16 6 9 4
12 -3 7 -7 -4 -12 -14 -12 -22 0 -8 -5 -14 -11 -14 -5 0 -7 6 -4 13 4 6 0 4
-8 -5 -8 -10 -18 -14 -23 -10 -4 4 -3 0 4 -9 14 -18 6 -30 -14 -22 -8 3 -11
10 -7 16 3 5 1 7 -5 4 -5 -4 -9 -18 -8 -31 2 -17 -1 -23 -10 -19 -9 3 -14 -2
-14 -16 0 -15 -5 -19 -17 -15 -17 5 -17 5 0 -6 19 -12 13 -35 -6 -23 -7 4 -5
-1 3 -11 13 -16 12 -20 -3 -31 -19 -14 -24 -30 -5 -19 7 5 8 3 4 -5 -5 -7 -14
-10 -20 -8 -7 3 -13 -1 -13 -9 0 -7 5 -11 11 -8 6 3 4 0 -5 -8 -9 -7 -14 -18
-12 -25 2 -6 -1 -15 -8 -19 -8 -5 -9 -3 -4 6 5 9 4 11 -3 6 -7 -4 -12 -14 -12
-22 0 -8 -6 -14 -12 -14 -9 0 -8 -4 2 -10 13 -9 7 -14 -12 -11 -5 0 -9 -5 -10
-11 -1 -14 -4 -29 -8 -40 -6 -19 -6 -35 2 -55 5 -15 4 -23 -3 -23 -7 0 -6 -6
2 -17 8 -9 12 -19 9 -22 -3 -3 8 -6 24 -6 16 -1 34 -9 42 -20 8 -11 14 -14 14
-6 0 9 6 6 18 -6 9 -10 14 -14 10 -8 -4 6 1 11 13 11 14 0 18 -5 13 -21 -4
-15 -3 -17 5 -6 10 16 45 25 35 10 -3 -5 -10 -6 -16 -3 -7 4 -8 2 -4 -5 4 -6
12 -9 17 -5 5 3 17 0 26 -8 9 -7 14 -8 10 -2 -4 7 5 11 24 11 l31 0 -23 -19
c-22 -17 -20 -17 24 1 51 22 63 20 20 -3 l-28 -14 43 2 c31 2 45 -2 52 -13 6
-10 10 -11 10 -3 0 6 5 12 11 12 5 0 7 -4 4 -10 -3 -5 1 -10 10 -10 9 0 14 4
11 8 -3 5 1 9 9 9 11 0 12 -4 4 -14 -13 -15 -14 -15 26 -17 22 -1 30 -6 29
-19 -2 -24 5 -21 16 6 6 16 9 18 9 5 1 -10 11 -23 24 -29 20 -11 21 -11 8 5
-12 14 -12 16 3 10 9 -3 16 -11 16 -16 0 -6 8 -4 17 3 11 10 14 10 9 2 -10
-18 4 -39 15 -22 6 10 9 11 9 2 0 -7 6 -13 14 -13 8 0 19 -12 25 -27 l11 -28
-5 30 -5 30 15 -28 c14 -24 14 -29 2 -42 -8 -8 -18 -11 -23 -7 -5 4 -2 -1 5
-10 7 -10 11 -19 7 -19 -3 -1 -10 -2 -15 -3 -5 0 -13 -5 -18 -10 -5 -5 -3 -6
5 -2 8 5 12 -1 12 -19 0 -14 -4 -24 -8 -21 -5 3 -9 -16 -11 -41 -1 -26 -4 -50
-7 -55 -3 -4 0 -8 6 -8 7 0 8 -6 2 -17 -4 -10 -7 -62 -6 -115 1 -71 -1 -96
-10 -92 -6 3 -4 0 4 -8 8 -7 14 -25 12 -40 -2 -18 1 -28 10 -28 9 0 9 -3 -2
-10 -13 -8 -12 -10 4 -10 13 0 17 -5 13 -20 -3 -11 -1 -18 4 -14 5 3 9 -3 10
-13 0 -16 1 -16 9 2 8 19 9 19 11 -2 1 -13 2 -28 3 -33 0 -6 8 -15 16 -21 13
-9 12 -10 -2 -5 -10 3 -18 1 -18 -4 0 -6 5 -10 10 -10 12 0 9 -38 -4 -59 -6
-9 -5 -12 0 -8 6 3 16 2 24 -4 8 -5 10 -9 4 -9 -6 0 -11 -7 -11 -15 0 -8 5
-15 10 -15 5 0 3 -8 -4 -17 -10 -11 -10 -14 -1 -9 7 4 12 2 12 -4 0 -6 6 -8
13 -5 6 3 5 0 -5 -6 -15 -12 -15 -15 0 -38 16 -25 16 -26 -3 -11 -13 9 -16 9
-8 1 6 -7 9 -20 6 -27 -3 -8 0 -14 7 -14 6 0 8 5 5 10 -3 6 1 10 11 10 11 0
14 -4 7 -12 -11 -15 -11 -28 1 -47 6 -9 5 -12 -2 -7 -12 7 -10 -20 3 -31 4 -4
5 -3 2 3 -4 7 0 15 8 18 12 4 13 2 6 -12 -14 -26 -14 -34 1 -44 10 -8 10 -9
-2 -5 -8 2 -14 10 -12 16 1 7 -2 10 -7 6 -13 -7 -3 -35 13 -35 6 0 4 -4 -4
-10 -16 -10 -22 -78 -8 -86 5 -3 3 -13 -4 -22 -7 -9 -8 -13 -2 -9 7 4 12 -2
12 -18 0 -14 -5 -22 -11 -18 -6 3 -7 1 -3 -6 5 -8 12 -9 20 -2 8 7 12 5 12 -9
0 -10 -4 -16 -8 -14 -4 3 -8 0 -8 -5 0 -6 5 -11 10 -11 6 0 10 -5 10 -11 0 -5
-4 -8 -8 -5 -5 3 -9 -1 -9 -9 0 -8 4 -12 9 -9 5 3 7 -6 4 -19 -2 -14 3 -38 11
-53 21 -41 26 -74 11 -70 -7 1 -10 1 -5 -1 4 -3 5 -9 2 -14 -4 -5 2 -6 11 -2
12 4 15 3 10 -5 -12 -20 -15 -51 -5 -57 5 -4 6 -11 3 -17 -5 -7 -2 -9 8 -5 11
4 16 -1 17 -19 3 -49 5 -54 23 -60 10 -3 18 -10 18 -16 0 -7 -5 -6 -14 1 -11
9 -16 9 -22 0 -4 -7 -3 -9 4 -5 11 7 38 -32 34 -48 -2 -5 5 -3 14 5 13 10 16
10 10 1 -4 -7 -2 -20 6 -29 11 -14 11 -16 -1 -9 -10 7 -12 0 -8 -33 3 -33 2
-41 -9 -37 -8 3 -14 1 -14 -4 0 -5 8 -11 18 -13 15 -4 14 -5 -2 -6 -20 -1 -20
-1 0 -16 19 -14 19 -14 -2 -10 -19 3 -21 -1 -17 -32 2 -19 -2 -42 -9 -51 -10
-12 -10 -14 0 -8 14 8 12 -19 -2 -43 -6 -9 -5 -12 0 -8 6 3 10 -11 9 -33 0
-21 -2 -37 -5 -35 -3 2 -11 -3 -18 -11 -10 -11 -8 -15 13 -20 14 -3 25 -11 25
-18 0 -6 5 -4 10 4 7 11 12 12 21 3 8 -8 18 -9 31 -2 10 5 18 6 17 2 -3 -21 2
-24 19 -12 15 12 15 11 -1 -8 -18 -20 -18 -22 3 -41 12 -11 20 -24 17 -29 -3
-5 5 -9 19 -9 13 0 24 3 24 7 0 4 9 11 20 14 11 4 18 11 15 16 -3 5 1 6 10 3
9 -4 15 -3 13 2 -2 5 2 9 7 9 6 0 9 -8 9 -17 -1 -14 2 -15 20 -6 11 6 18 7 13
3 -4 -5 0 -19 9 -33 9 -13 11 -21 5 -18 -6 4 -11 3 -11 -1 0 -5 10 -13 23 -18
12 -6 21 -17 19 -24 -1 -7 2 -10 8 -6 8 5 7 11 -1 21 -10 12 -10 15 2 12 8 -2
17 -7 21 -13 4 -6 8 -2 8 9 0 15 3 16 15 6 8 -7 15 -9 15 -4 0 4 6 2 13 -5 6
-6 12 -21 12 -32 0 -10 5 -20 10 -21 21 -3 34 -32 22 -47 -10 -12 -9 -13 3 -6
8 5 24 10 35 12 11 1 14 -1 8 -3 -18 -8 -16 -27 1 -21 8 3 13 -1 12 -11 0 -10
2 -17 6 -17 4 0 13 -8 20 -18 8 -10 20 -17 28 -15 10 2 14 -3 12 -14 -2 -11 4
-19 13 -19 28 -3 33 -4 41 -11 3 -4 -4 -5 -16 -3 -18 3 -21 2 -12 -7 11 -11
31 -18 59 -20 7 -1 10 -5 7 -10 -3 -5 -11 -5 -17 -1 -7 4 -6 -1 2 -10 8 -10
21 -17 30 -16 31 3 42 -1 35 -12 -4 -8 -9 -7 -16 2 -8 11 -9 11 -5 -1 2 -8 10
-14 16 -13 6 2 20 -6 31 -17 22 -22 46 -27 34 -7 -5 8 -2 8 9 -2 18 -14 23
-26 8 -16 -6 3 -15 -4 -21 -15 -6 -12 -7 -20 -1 -20 5 0 11 6 14 13 3 6 4 2 4
-10 -1 -12 -3 -20 -6 -18 -2 3 -9 -5 -16 -18 -6 -12 -17 -21 -24 -19 -7 1 -10
-2 -6 -8 5 -8 11 -8 19 -1 9 8 13 7 13 -2 0 -16 -59 -19 -69 -3 -6 8 -8 8 -8
-1 0 -7 -12 -13 -26 -13 -17 0 -23 4 -18 12 4 6 -3 4 -16 -5 -17 -12 -28 -14
-43 -6 -13 8 -17 8 -13 1 3 -6 2 -13 -4 -17 -5 -3 -10 -2 -10 3 0 5 -7 9 -15
9 -10 0 -12 -4 -5 -12 7 -8 3 -11 -13 -10 -12 1 -26 -3 -30 -9 -5 -6 -6 0 -3
14 3 14 3 20 0 14 -3 -7 -15 -10 -27 -8 -21 4 -21 4 -2 -5 23 -11 23 -11 -28
-17 -28 -3 -36 0 -31 9 4 6 -2 4 -13 -6 -11 -9 -24 -14 -28 -10 -5 5 -4 1 2
-7 10 -13 6 -15 -32 -15 -34 1 -45 -3 -48 -17 -3 -10 -11 -18 -17 -18 -9 0 -9
5 1 17 12 16 11 15 -8 0 -12 -11 -27 -16 -34 -11 -9 5 -10 2 -6 -10 4 -9 3
-15 -2 -11 -5 3 -11 2 -14 -2 -2 -5 -2 -2 -1 5 2 6 -1 12 -6 12 -6 0 -10 -5
-10 -11 0 -7 -9 -9 -21 -6 -17 5 -18 3 -7 -10 12 -15 10 -15 -12 -3 -23 12
-24 12 -11 -4 12 -14 12 -16 -4 -10 -14 6 -16 4 -10 -7 7 -11 5 -11 -10 1 -11
9 -16 10 -11 3 5 -9 -1 -13 -19 -13 -19 0 -25 -4 -22 -13 5 -14 -1 -16 -47
-20 -13 -1 -22 -5 -19 -9 2 -5 -1 -8 -8 -8 -6 0 -18 -8 -26 -17 -8 -10 -12
-12 -8 -5 10 20 -5 14 -27 -10 -11 -13 -17 -16 -13 -8 4 10 2 9 -8 -2 -16 -21
-32 -24 -21 -5 4 6 -2 3 -14 -7 -24 -21 -29 -32 -10 -20 7 4 8 3 4 -4 -4 -7
-14 -12 -22 -12 -8 0 -12 -5 -9 -10 9 -14 -9 -12 -24 3 -10 10 -11 8 -5 -7 6
-15 4 -17 -7 -11 -11 7 -12 6 -2 -7 16 -19 7 -28 -25 -28 -14 0 -22 -3 -19 -7
4 -4 -6 -12 -23 -19 -19 -9 -28 -18 -24 -27 3 -9 -7 -23 -25 -36 -18 -13 -28
-27 -25 -36 4 -8 11 -12 17 -8 6 3 7 1 3 -6 -6 -9 -11 -9 -24 1 -10 8 -13 8
-9 1 4 -6 1 -14 -5 -16 -10 -4 -10 -6 -1 -6 8 -1 5 -9 -8 -22 -17 -17 -18 -23
-7 -37 9 -11 10 -14 1 -8 -7 4 -13 4 -14 -1 -5 -46 -8 -56 -19 -63 -7 -4 -9
-13 -6 -19 4 -6 2 -11 -4 -11 -7 0 -10 -6 -7 -14 3 -7 0 -19 -6 -26 -9 -10 -9
-11 0 -6 12 6 12 -11 0 -31 -4 -6 -4 -19 -1 -30 6 -16 5 -16 -9 2 -15 19 -15
19 -14 0 0 -59 -4 -86 -13 -80 -10 6 -13 -3 -12 -40 0 -11 -5 -23 -12 -27 -8
-6 -8 -8 1 -8 18 0 9 -48 -13 -66 -16 -14 -17 -15 -2 -10 10 3 18 1 18 -4 0
-6 -8 -10 -17 -10 -14 -1 -12 -4 7 -16 21 -12 22 -14 5 -12 -14 2 -19 -2 -17
-15 2 -9 -3 -17 -10 -17 -8 0 -9 -3 -3 -8 15 -11 13 -73 -2 -67 -7 2 -13 0
-13 -5 0 -12 2 -12 182 -15 96 -1 145 2 141 8 -4 6 -1 7 8 1 20 -13 240 -14
232 -1 -4 6 -1 7 8 1 20 -13 240 -14 232 -1 -4 6 -1 7 8 1 20 -13 240 -14 232
-1 -4 6 -1 7 8 1 20 -13 240 -14 232 -1 -4 6 -1 7 8 1 20 -13 240 -14 232 -1
-4 6 -1 7 8 1 20 -13 240 -14 232 -1 -4 6 -1 7 8 1 20 -13 240 -14 232 -1 -4
6 -1 7 8 1 21 -14 240 -14 232 0 -5 7 -2 7 8 0 19 -16 962 -17 953 -2 -5 7 -2
8 7 2 21 -14 240 -14 232 0 -5 8 -2 7 8 0 8 -7 46 -11 87 -10 78 1 99 14 81
48 -6 10 -7 23 -4 28 3 6 1 10 -5 10 -6 0 -8 5 -3 12 16 26 12 39 -10 33 -20
-6 -21 -5 -5 8 10 8 15 17 11 20 -3 4 0 7 7 7 7 0 10 3 7 6 -4 4 -12 2 -19 -4
-10 -8 -13 -4 -15 15 0 16 2 21 7 14 5 -9 9 -7 12 7 4 15 2 19 -8 15 -11 -4
-14 6 -14 41 0 48 -6 55 -30 34 -12 -11 -12 -10 -1 4 10 13 10 22 1 39 -10 17
-9 23 1 30 11 7 11 11 2 17 -7 4 -10 19 -8 35 3 16 1 27 -5 27 -6 0 -9 -4 -5
-9 3 -5 1 -12 -4 -15 -11 -7 -9 13 3 33 6 10 5 12 -2 7 -8 -5 -12 3 -12 24 0
22 -4 29 -12 24 -8 -5 -8 -1 1 10 13 15 13 19 1 26 -8 5 -17 7 -21 4 -5 -2 -7
8 -5 23 3 31 -11 66 -23 59 -5 -3 -7 6 -5 19 1 14 -2 23 -6 20 -14 -9 -27 18
-32 67 -2 13 -6 14 -23 6 -18 -10 -19 -10 -6 5 9 12 10 17 2 17 -7 0 -9 5 -5
12 5 8 2 9 -10 5 -9 -4 -15 -3 -11 2 3 6 -3 15 -12 20 -17 10 -17 12 3 29 12
10 25 28 28 40 5 14 12 20 19 15 7 -4 6 1 -2 10 -12 15 -12 17 3 11 11 -4 16
-1 16 10 0 9 5 16 11 16 5 0 8 4 5 8 -3 5 3 15 12 23 9 8 26 27 36 41 11 15
23 25 28 22 4 -3 5 3 1 12 -4 11 -3 15 5 10 6 -3 13 2 17 13 3 11 13 25 23 33
15 12 16 11 3 -5 -8 -9 -12 -20 -9 -22 3 -3 11 7 19 22 21 40 48 65 62 56 7
-4 6 1 -3 13 -8 10 -11 16 -6 12 4 -4 25 11 47 33 21 21 48 39 59 39 13 0 18
4 15 11 -8 13 37 -12 47 -26 4 -5 8 -6 8 -1 0 5 7 3 15 -4 8 -7 15 -9 15 -4 0
5 5 2 10 -6 9 -13 11 -13 20 0 9 12 10 12 8 -5 -2 -14 2 -20 14 -19 10 1 16
-2 13 -6 -3 -4 2 -11 11 -14 9 -3 12 -11 8 -18 -5 -8 0 -7 11 2 10 8 16 10 12
3 -4 -7 0 -16 10 -22 10 -6 14 -11 8 -11 -5 0 8 -12 30 -26 22 -14 31 -23 20
-20 l-20 6 20 -15 c54 -42 58 -47 44 -57 -11 -8 -10 -9 4 -4 11 3 20 0 23 -9
4 -8 11 -12 18 -8 6 4 5 -1 -3 -11 -12 -14 -12 -17 -1 -14 8 2 19 -7 25 -20 5
-12 13 -22 17 -22 5 0 8 -9 8 -20 0 -11 3 -20 8 -20 4 0 13 -9 20 -21 11 -17
11 -20 0 -13 -7 4 -3 -4 10 -18 12 -13 22 -34 22 -45 0 -11 7 -26 15 -33 8 -7
12 -16 9 -21 -3 -5 0 -9 5 -9 6 0 11 -10 11 -23 0 -27 21 -77 33 -77 5 0 6 -4
3 -8 -3 -5 1 -20 9 -35 8 -15 11 -27 7 -27 -4 0 0 -5 10 -10 9 -6 14 -18 11
-29 -3 -11 2 -21 11 -24 9 -4 16 -12 16 -19 0 -9 -3 -8 -10 2 -5 8 -10 10 -10
4 0 -16 25 -35 36 -26 4 4 2 -1 -5 -10 -7 -10 -9 -18 -4 -18 11 0 50 -80 45
-94 -2 -4 4 -6 12 -3 11 4 13 1 9 -10 -5 -13 -2 -15 13 -9 15 5 16 4 7 -5 -14
-14 -6 -39 13 -39 8 0 11 -6 8 -15 -4 -9 2 -18 17 -24 13 -5 18 -10 11 -10
-17 -1 11 -31 29 -31 8 0 8 -5 -2 -17 -10 -11 -10 -14 -1 -9 6 4 12 2 12 -4 0
-6 11 -15 25 -22 13 -6 22 -15 19 -19 -3 -5 0 -9 6 -9 6 0 8 -5 5 -10 -3 -5 1
-10 10 -10 9 0 13 -5 10 -10 -4 -6 -3 -10 2 -9 20 3 34 -2 28 -11 -3 -5 1 -10
10 -10 9 0 14 -4 11 -9 -7 -11 38 -31 86 -37 l38 -6 0 595 c0 537 -2 595 -16
601 -9 4 -14 13 -10 21 4 13 2 13 -14 5 -15 -8 -20 -6 -25 10 -4 11 -11 18
-16 15 -5 -4 -9 -1 -9 5 0 7 -9 9 -23 6 -12 -3 -16 -3 -9 0 19 9 -36 44 -56
36 -10 -3 -13 -1 -8 6 5 8 0 12 -13 12 -27 0 -52 11 -46 19 2 4 -9 7 -26 6
-16 -1 -33 3 -36 8 -4 6 -1 7 7 2 8 -5 11 -4 7 2 -4 6 -19 8 -33 5 -15 -3 -24
-1 -21 4 3 5 -14 10 -36 11 -60 4 -67 5 -67 15 0 5 -5 6 -10 3 -6 -4 -8 -11
-5 -16 9 -14 -2 -11 -19 7 -12 12 -16 12 -16 2 0 -10 -3 -9 -10 2 -9 13 -10
13 -10 0 0 -13 -1 -13 -10 0 -9 13 -10 13 -10 0 0 -13 -1 -13 -10 0 -8 12 -10
12 -10 1 0 -10 -3 -11 -13 -3 -8 7 -18 7 -27 2 -8 -5 -21 -5 -32 1 -12 6 -18
6 -18 0 0 -5 -12 -8 -26 -5 -19 3 -24 1 -18 -8 4 -7 -3 -4 -16 7 -13 11 -20
14 -16 8 7 -14 2 -15 -49 -15 -16 0 -33 -5 -37 -12 -5 -7 -8 -7 -8 3 0 11 -3
11 -17 0 -15 -12 -16 -12 -8 1 8 13 7 13 -8 1 -11 -9 -17 -10 -17 -2 0 6 -5
11 -11 11 -5 0 -7 -4 -4 -10 3 -5 -1 -10 -10 -10 -10 0 -15 6 -13 17 2 10 9
17 16 16 6 -2 9 4 6 12 -4 8 -1 15 5 15 6 0 11 5 11 11 0 5 -4 7 -10 4 -6 -3
-10 1 -10 11 0 14 -2 15 -17 3 -15 -12 -16 -12 -8 1 7 12 6 13 -7 3 -8 -7 -18
-10 -21 -6 -4 3 -7 1 -7 -6 0 -7 -4 -10 -10 -6 -5 3 -18 -3 -30 -15 -12 -12
-20 -15 -20 -7 0 8 -4 7 -10 -3 -5 -8 -10 -11 -10 -7 0 5 9 22 21 38 11 16 17
33 14 39 -3 5 -1 10 5 10 7 0 9 7 6 17 -4 10 -4 14 0 10 9 -9 33 23 34 45 0 9
5 20 12 24 7 5 8 3 3 -6 -5 -9 -4 -11 4 -6 9 6 9 11 0 22 -7 9 -8 14 -3 13 21
-4 28 2 14 11 -13 8 -12 10 3 10 10 0 15 4 12 10 -3 5 1 10 9 10 16 0 19 7 19
42 0 10 3 15 7 13 10 -6 22 24 15 36 -4 5 2 6 12 2 16 -6 17 -5 3 12 -9 11
-10 16 -2 11 7 -4 12 -1 12 9 0 8 7 18 15 21 8 4 15 10 15 16 0 5 -6 6 -12 3
-7 -4 -5 0 6 9 10 8 15 20 10 27 -4 7 -3 10 3 6 6 -4 14 0 17 9 3 8 2 13 -3 9
-5 -3 0 13 10 35 11 22 17 46 13 52 -4 6 -3 8 3 5 6 -4 14 0 17 9 3 8 2 13 -3
10 -5 -4 -7 3 -4 14 3 11 9 23 14 25 4 3 5 13 2 22 -4 10 -2 14 4 10 5 -3 10
0 10 8 0 8 -5 12 -10 8 -5 -3 -4 4 2 14 6 11 7 23 4 27 -3 3 -1 6 7 6 10 0 10
3 1 14 -8 10 -9 16 -1 21 5 3 10 11 10 16 0 6 -4 7 -10 4 -6 -4 -7 2 -1 18 5
13 6 30 1 37 -4 7 -6 19 -3 26 2 6 -1 15 -7 19 -8 5 -8 11 1 21 6 8 7 14 2 14
-5 0 -9 8 -9 18 -1 9 -5 26 -9 36 -6 14 -5 17 3 12 8 -5 10 -2 6 8 -3 9 -10
16 -16 16 -5 0 -6 5 -3 10 3 6 0 10 -7 10 -9 0 -9 3 2 10 11 7 11 10 2 10 -7
0 -10 5 -7 10 3 6 0 10 -7 10 -9 0 -9 3 2 10 13 8 13 10 -2 10 -11 0 -16 6
-13 20 2 11 0 20 -6 20 -5 0 -9 7 -9 15 0 9 -6 18 -14 21 -8 3 -12 12 -9 20 3
8 -4 18 -18 23 -13 5 -18 10 -11 10 6 1 12 6 12 12 0 6 -6 9 -14 6 -10 -4 -13
0 -11 14 2 11 0 17 -6 14 -5 -4 -9 1 -9 10 0 9 -4 13 -10 10 -5 -3 -10 1 -10
9 0 9 -4 16 -9 16 -5 0 -14 14 -21 30 -7 17 -15 28 -18 26 -6 -7 -48 46 -44
56 1 5 -5 8 -14 8 -10 0 -14 6 -11 14 4 11 1 13 -10 9 -11 -4 -14 -2 -9 5 4 7
-3 17 -19 24 -15 6 -24 17 -21 25 3 7 -5 18 -17 23 -21 11 -21 11 -3 -4 11 -9
15 -16 9 -16 -5 0 -21 13 -34 28 -13 16 -32 31 -41 35 -10 3 -18 13 -18 22 0
8 -9 15 -21 15 -11 0 -17 5 -14 10 3 6 1 10 -5 10 -7 0 -24 9 -39 19 -15 11
-34 21 -41 23 -14 3 -19 6 -52 34 -8 6 -20 8 -27 6 -8 -3 -11 0 -7 6 3 5 -5
13 -19 16 -17 4 -23 11 -18 23 4 11 3 14 -5 9 -7 -4 -12 -2 -12 4 0 6 -5 8
-12 4 -7 -4 -8 -3 -4 4 4 6 14 8 24 5 13 -5 15 -4 7 8 -12 17 -13 39 -1 57 4
7 2 20 -6 29 -9 12 -9 15 0 9 11 -7 16 4 13 29 -1 6 6 1 15 -10 11 -14 15 -16
14 -5 -4 27 0 41 9 35 5 -3 13 -1 16 5 4 6 1 9 -6 8 -6 -2 -14 3 -17 11 -2 8
0 11 6 7 17 -10 25 13 10 31 -9 12 -9 15 0 9 11 -7 17 6 12 29 -1 6 -3 34 -3
63 -2 40 1 52 13 52 10 0 11 3 4 8 -11 7 -27 55 -16 48 4 -2 7 6 7 19 0 13 -3
21 -7 19 -4 -2 -9 0 -13 6 -3 5 -1 10 4 10 6 0 11 5 11 11 0 5 -4 8 -8 5 -4
-2 -9 5 -9 17 -2 17 0 19 7 7 8 -12 10 -12 10 -1 0 8 -8 20 -17 27 -17 13 -17
14 0 8 21 -8 22 2 2 23 -9 9 -13 23 -10 34 4 12 2 19 -7 19 -10 0 -9 3 2 10 9
6 11 10 3 10 -7 0 -10 7 -6 16 4 10 -1 17 -16 21 -11 3 -21 9 -21 14 0 5 7 5
17 2 12 -5 14 -3 8 7 -6 10 -4 12 10 6 15 -5 16 -4 5 9 -11 13 -10 14 5 9 11
-4 22 -2 29 7 6 8 22 14 36 14 14 0 26 6 26 13 3 25 5 27 13 13 7 -11 13 -7
26 15 9 16 14 21 11 12 -3 -10 0 -20 6 -24 7 -5 8 -2 3 6 -6 10 -4 12 10 6 15
-5 16 -4 5 9 -11 13 -10 14 5 9 12 -5 16 -4 12 3 -4 7 5 10 25 8 31 -3 31 -2
13 12 -19 15 -19 15 4 8 16 -5 21 -4 17 4 -5 7 -1 9 8 5 19 -7 22 12 4 20 -7
3 0 3 15 1 33 -5 57 3 57 17 0 6 -8 4 -17 -3 -16 -13 -17 -12 -4 4 10 12 17
14 26 7 9 -8 22 -2 46 21 18 17 41 31 50 32 15 1 16 4 6 16 -9 12 -9 13 1 7 6
-4 12 -3 12 3 0 5 9 8 19 6 14 -3 18 1 14 11 -3 8 0 14 7 14 6 0 8 5 4 13 -5
7 0 6 11 -3 17 -14 18 -13 12 2 -3 10 -2 20 3 23 6 4 10 1 10 -6 0 -8 7 -5 20
6 11 10 17 21 15 26 -3 4 0 11 6 14 5 4 8 14 4 22 -4 13 -3 14 10 3 13 -11 15
-10 10 2 -3 8 1 27 9 42 8 16 12 34 9 42 -3 9 2 12 17 9 16 -3 19 -1 11 8 -6
8 -6 18 -1 27 5 9 5 19 -1 26 -8 9 -4 11 13 7 17 -3 19 -2 9 5 -11 8 -11 11 0
16 8 3 3 3 -11 -1 -22 -5 -23 -4 -11 10 11 14 11 19 -2 31 -8 8 -16 13 -19 11
-2 -2 -4 5 -4 16 0 18 2 18 12 5 16 -23 26 -20 12 4 -7 11 -20 20 -28 20 -13
0 -13 1 0 10 11 7 12 10 2 10 -9 0 -11 7 -6 22 6 20 5 21 -9 10 -12 -10 -17
-10 -23 -1 -4 8 -3 9 4 5 7 -4 12 -2 12 3 0 6 -5 11 -11 11 -6 0 -9 7 -6 15 4
8 1 17 -5 21 -7 5 -8 2 -3 -7 8 -12 6 -12 -9 0 -13 11 -14 16 -4 22 11 7 11 9
0 9 -7 0 -10 5 -6 11 4 7 -2 6 -17 -2 -22 -11 -23 -11 -10 4 9 11 10 17 2 17
-6 0 -11 7 -11 15 0 9 -6 12 -17 8 -11 -4 -14 -3 -9 5 4 7 2 12 -4 12 -6 0 -9
4 -6 9 7 11 -49 32 -60 23 -4 -4 -4 -1 0 6 4 7 13 9 19 6 9 -5 9 -4 1 5 -7 7
-28 13 -48 14 -20 1 -36 5 -36 10 0 4 5 5 10 2 6 -3 10 -2 10 3 0 6 -7 13 -16
16 -23 9 -26 8 -18 -6 4 -7 -2 -5 -14 6 -12 10 -20 21 -18 25 2 3 -10 5 -27 5
-18 -1 -38 4 -46 10 -12 9 -13 8 -7 -4 4 -8 0 -6 -8 4 -18 23 -50 31 -43 12 3
-7 -1 -13 -9 -13 -8 0 -14 6 -14 13 0 9 -15 12 -50 10 -39 -2 -49 1 -45 11 2
8 1 12 -4 8 -5 -3 -11 -2 -14 2 -2 5 -2 3 -1 -4 2 -7 -2 -15 -9 -19 -7 -4 -9
-4 -5 1 14 15 -13 33 -42 28 -20 -3 -30 0 -30 9 0 9 -3 9 -10 -2 -8 -12 -10
-12 -10 -1 0 9 -8 12 -27 8 -31 -6 -55 1 -47 14 3 5 0 9 -5 9 -6 0 -11 -4 -11
-10 0 -5 -5 -10 -11 -10 -5 0 -7 5 -4 10 4 6 -9 10 -32 11 -21 1 -64 2 -95 2
-32 1 -58 6 -58 10 0 4 -9 3 -19 -3 -14 -7 -22 -7 -27 2 -4 6 -3 8 3 5 6 -4
17 1 24 10 12 15 12 16 -1 8 -20 -13 -52 -17 -46 -7 3 5 -7 8 -22 7 -15 -1
-33 3 -41 9 -11 8 -13 8 -7 -1 4 -7 2 -13 -3 -13 -6 0 -11 7 -11 15 0 8 -4 15
-10 15 -5 0 -7 -7 -4 -15 5 -11 2 -13 -10 -9 -9 3 -16 14 -16 23 0 13 -2 14
-9 1 -6 -8 -7 -19 -3 -25 3 -5 -2 -4 -11 4 -20 16 -23 25 -4 15 6 -4 9 -3 4 1
-13 15 -49 17 -42 3 4 -7 -1 -4 -9 6 -9 11 -16 15 -16 9 0 -14 -24 -11 -26 2
-1 6 2 9 8 7 5 -1 7 2 3 8 -3 6 -12 7 -18 3 -7 -4 -15 -8 -19 -8 -3 0 -10 -4
-15 -9 -5 -5 -2 -6 6 -1 10 6 12 4 7 -4 -6 -8 -12 -9 -20 -2 -7 6 -16 8 -20 4
-4 -4 -4 0 -1 9 8 20 -15 19 -41 -2 -17 -13 -18 -13 -7 1 11 14 -16 15 -275
17 -208 0 -290 -3 -301 -11 -11 -9 -13 -9 -8 0 4 6 3 14 -3 18 -5 3 -10 2 -10
-3z m-996 -89 c-22 -16 -31 -16 -40 -1 -4 6 -3 8 4 4 6 -3 13 -3 16 2 3 5 13
9 22 9 15 0 15 -2 -2 -14z m2573 -105 c-3 -8 -6 -5 -6 6 -1 11 2 17 5 13 3 -3
4 -12 1 -19z m-3343 -116 c3 -5 -1 -9 -9 -9 -8 0 -12 4 -9 9 3 4 7 8 9 8 2 0
6 -4 9 -8z m-74 -42 c0 -5 -2 -10 -4 -10 -3 0 -8 5 -11 10 -3 6 -1 10 4 10 6
0 11 -4 11 -10z m3780 -494 c0 -11 -19 -15 -25 -6 -3 5 1 10 9 10 9 0 16 -2
16 -4z m-200 -150 c0 -3 -4 -8 -10 -11 -5 -3 -10 -1 -10 4 0 6 5 11 10 11 6 0
10 -2 10 -4z m-3375 -905 c3 -5 2 -12 -3 -15 -5 -3 -9 1 -9 9 0 17 3 19 12 6z
m55 -411 c0 -5 -5 -10 -11 -10 -5 0 -7 5 -4 10 3 6 8 10 11 10 2 0 4 -4 4 -10z
m30 -200 c0 -5 -5 -10 -11 -10 -5 0 -7 5 -4 10 3 6 8 10 11 10 2 0 4 -4 4 -10z
m35 -188 c-3 -3 -11 0 -18 7 -9 10 -8 11 6 5 10 -3 15 -9 12 -12z m2629 -214
c-3 -4 0 -8 7 -8 7 0 4 -7 -7 -15 -19 -14 -19 -14 2 -9 13 3 26 -1 35 -13 13
-16 13 -17 -4 -4 -15 12 -17 12 -11 -3 6 -15 18 -20 37 -17 5 1 6 -3 2 -9 -3
-5 -1 -10 4 -10 6 0 11 -6 11 -13 0 -7 23 -34 50 -60 28 -26 50 -52 50 -57 0
-6 5 -8 10 -5 6 3 10 -1 10 -9 0 -9 7 -16 16 -16 9 0 12 -5 8 -12 -5 -7 -2 -9
8 -5 10 3 15 0 14 -11 0 -9 9 -21 22 -27 12 -5 20 -16 17 -23 -3 -7 0 -10 6
-7 6 4 13 -3 16 -15 4 -16 8 -18 14 -8 6 9 10 3 15 -19 3 -18 11 -31 18 -30 6
1 10 -4 8 -10 -1 -7 5 -13 14 -13 8 0 12 -5 9 -11 -4 -6 3 -13 16 -16 22 -6
22 -7 3 -14 -18 -7 -18 -8 3 -15 13 -3 20 -10 17 -15 -3 -5 0 -9 5 -9 6 0 11
-7 11 -15 0 -8 5 -15 10 -15 6 0 10 -9 10 -19 0 -11 5 -23 12 -27 7 -5 8 -3 3
6 -5 8 -4 11 3 6 6 -4 8 -14 5 -23 -5 -12 -3 -14 7 -8 8 5 11 4 6 -3 -3 -6 -1
-14 5 -17 5 -4 8 -13 5 -21 -3 -7 -1 -16 4 -19 6 -4 10 -20 10 -36 0 -22 4
-28 13 -23 8 6 8 3 -1 -9 -8 -9 -11 -21 -7 -27 3 -5 1 -10 -6 -10 -9 0 -10 -3
-2 -11 12 -12 6 -49 -9 -49 -5 0 -6 -5 -2 -12 4 -7 3 -8 -4 -4 -6 4 -20 -2
-32 -14 -11 -11 -24 -20 -29 -20 -4 0 -17 -11 -27 -25 -10 -14 -23 -25 -28
-25 -5 0 -17 -9 -27 -21 -9 -11 -20 -20 -23 -20 -19 2 -27 0 -23 -6 3 -5 -1
-14 -9 -21 -8 -7 -14 -10 -14 -7 0 3 -8 -3 -18 -12 -11 -10 -17 -21 -15 -25 2
-4 -2 -10 -8 -14 -8 -4 -9 -3 -5 4 4 7 3 12 -3 12 -5 0 -13 -9 -16 -20 -3 -11
-13 -20 -21 -20 -9 0 -12 -5 -8 -12 5 -8 2 -9 -11 -4 -16 6 -16 4 -4 -11 8
-10 9 -14 2 -10 -7 5 -16 -1 -22 -12 -6 -11 -20 -23 -31 -26 -11 -4 -20 -15
-20 -26 0 -11 -4 -17 -10 -14 -5 3 -10 -1 -10 -10 0 -8 -6 -18 -14 -21 -18 -7
-145 52 -167 78 -9 10 -24 18 -34 18 -14 0 -15 3 -5 15 16 20 6 19 -14 -1 -15
-14 -16 -14 -16 1 0 13 -6 16 -21 12 -14 -4 -28 2 -43 17 -14 16 -29 22 -48
19 -14 -2 -29 1 -33 7 -4 6 1 7 12 4 15 -6 15 -4 -2 9 -17 13 -20 13 -23 1 -2
-8 -7 -14 -12 -14 -5 0 -7 6 -4 14 4 11 -1 14 -20 12 -15 -2 -29 1 -33 7 -4 6
-1 7 7 2 9 -6 11 -4 5 4 -5 9 -10 10 -18 2 -15 -15 -32 -14 -19 2 8 10 6 13
-9 14 -12 1 -17 -3 -13 -10 3 -7 -1 -4 -9 6 -11 13 -16 15 -20 5 -2 -7 -8 -10
-12 -6 -4 4 -2 16 6 25 13 17 13 17 -5 3 -21 -16 -49 -23 -40 -9 3 5 11 6 17
3 9 -5 9 -3 0 6 -10 11 -15 11 -29 -1 -15 -12 -17 -12 -9 0 6 11 4 13 -7 9 -8
-4 -21 -2 -29 2 -7 5 -18 5 -25 -1 -7 -6 -15 -6 -18 -1 -3 5 -20 8 -37 6 -27
-3 -30 -2 -19 11 16 20 6 19 -14 -1 -9 -8 -16 -11 -16 -5 0 6 -5 11 -11 11 -5
0 -8 -4 -5 -8 3 -5 -1 -9 -9 -9 -13 0 -12 3 1 18 15 17 15 18 -12 13 -28 -5
-28 -5 -9 11 11 9 15 14 8 11 -6 -4 -15 -1 -19 5 -4 8 -3 9 4 5 7 -4 12 -2 12
4 0 6 5 8 13 4 8 -5 8 -2 -2 9 -7 9 -10 17 -6 17 4 0 1 8 -6 17 -10 11 -10 14
-1 9 11 -6 17 5 13 27 0 4 4 7 9 7 6 0 10 -6 11 -12 0 -7 5 -1 11 15 5 15 14
25 19 21 5 -3 6 -10 3 -16 -4 -7 -2 -8 5 -4 6 4 9 12 6 17 -4 5 -1 9 4 9 6 0
11 8 11 17 0 9 3 13 6 10 13 -12 46 14 39 31 -3 9 -3 14 0 10 4 -3 15 2 26 13
11 11 24 17 29 14 6 -4 10 -2 10 4 0 5 -6 12 -12 15 -7 3 -2 3 11 0 16 -4 21
-3 17 5 -4 6 0 11 8 11 9 0 16 5 16 11 0 5 -5 7 -12 3 -7 -5 -8 -3 -4 5 5 7
15 10 23 7 8 -3 11 -1 8 4 -3 6 -1 10 5 10 6 0 8 5 5 10 -3 6 1 10 9 10 18 0
40 36 31 50 -3 6 -2 10 4 10 5 0 12 -6 14 -12 3 -7 6 -4 6 6 1 11 4 16 8 13 3
-4 18 3 31 15 23 21 25 21 18 4 -7 -20 -7 -20 15 0 20 17 22 17 16 2 -4 -10
-2 -18 3 -18 6 0 10 9 10 19 0 11 5 23 12 27 7 4 8 3 4 -4 -4 -7 -3 -12 2 -12
15 0 22 13 13 24 -6 8 2 12 25 13 20 2 34 -2 34 -8 0 -6 7 -9 15 -6 8 4 17 2
20 -4 4 -5 11 -6 17 -3 7 4 8 2 4 -5 -6 -9 -11 -9 -22 0 -10 8 -14 8 -14 0 0
-12 11 -14 49 -11 17 1 21 -2 15 -12 -6 -10 -4 -10 9 1 18 15 23 26 7 16 -17
-11 -11 7 8 21 10 9 13 17 7 21 -16 13 -16 33 0 33 15 0 19 11 16 40 -2 13 -1
13 8 0 5 -8 8 -17 6 -20 -2 -4 2 -7 10 -7 8 0 12 4 9 9 -3 4 0 8 5 8 6 0 11
-5 11 -12 0 -6 7 -3 16 8 8 10 13 13 9 7 -9 -18 5 -16 27 4 19 17 24 43 8 43
-5 0 -10 5 -10 11 0 5 6 7 13 3 9 -6 9 -5 0 8 -7 8 -10 18 -6 21 3 4 0 7 -8 7
-12 0 -11 2 1 11 12 8 12 12 2 16 -10 4 -10 8 -1 19 9 11 9 14 0 14 -7 0 -9 5
-5 12 4 6 -1 17 -11 25 -11 7 -14 13 -8 13 6 0 10 11 9 25 -2 13 1 22 5 19 5
-3 9 2 9 11 0 10 -5 14 -12 10 -7 -4 -4 1 6 9 11 9 14 16 7 16 -7 0 -9 5 -6
10 3 6 0 13 -8 16 -18 6 -18 61 0 61 7 0 10 -4 7 -9z m-7 -73 c0 -8 -4 -15 -9
-15 -10 0 -11 14 -1 23 9 10 10 9 10 -8z m-2452 -325 c3 -5 2 -10 -4 -10 -5 0
-13 5 -16 10 -3 6 -2 10 4 10 5 0 13 -4 16 -10z m35 -34 c0 -3 -4 -8 -10 -11
-5 -3 -10 -1 -10 4 0 6 5 11 10 11 6 0 10 -2 10 -4z m2040 -64 c0 -13 -12 -22
-22 -16 -10 6 -1 24 13 24 5 0 9 -4 9 -8z m1145 -2 c-3 -5 -12 -10 -18 -10 -7
0 -6 4 3 10 19 12 23 12 15 0z m-1210 -60 c-3 -5 -12 -10 -18 -10 -7 0 -6 4 3
10 19 12 23 12 15 0z m-1375 -260 c0 -5 -5 -10 -11 -10 -5 0 -7 5 -4 10 3 6 8
10 11 10 2 0 4 -4 4 -10z m-352 -215 c-3 -3 -9 2 -12 12 -6 14 -5 15 5 6 7 -7
10 -15 7 -18z m-513 -223 c-3 -3 -11 0 -18 7 -9 10 -8 11 6 5 10 -3 15 -9 12
-12z m-162 -117 c-3 -9 -8 -14 -10 -11 -3 3 -2 9 2 15 9 16 15 13 8 -4z m-102
-158 c-10 -9 -11 -8 -5 6 3 10 9 15 12 12 3 -3 0 -11 -7 -18z m-81 -322 c0 -2
-6 -8 -13 -14 -10 -8 -14 -7 -14 2 0 8 6 14 14 14 7 0 13 -1 13 -2z"/>
<path d="M2890 1445 c0 -8 2 -15 4 -15 2 0 6 7 10 15 3 8 1 15 -4 15 -6 0 -10
-7 -10 -15z"/>
<path d="M2856 1207 c3 -10 9 -15 12 -12 3 3 0 11 -7 18 -10 9 -11 8 -5 -6z"/>
<path d="M3273 1075 c0 -8 4 -12 9 -9 5 3 6 10 3 15 -9 13 -12 11 -12 -6z"/>
<path d="M2112 5061 c-11 -7 -11 -9 0 -14 9 -3 15 1 15 9 0 8 -1 14 -1 14 -1
0 -7 -4 -14 -9z"/>
<path d="M400 4710 c-9 -6 -10 -10 -3 -10 6 0 15 5 18 10 8 12 4 12 -15 0z"/>
<path d="M115 4440 c-3 -5 -1 -10 4 -10 6 0 11 5 11 10 0 6 -2 10 -4 10 -3 0
-8 -4 -11 -10z"/>
<path d="M4360 4319 c0 -5 5 -7 10 -4 6 3 10 8 10 11 0 2 -4 4 -10 4 -5 0 -10
-5 -10 -11z"/>
<path d="M75 4080 c3 -5 8 -10 11 -10 2 0 4 5 4 10 0 6 -5 10 -11 10 -5 0 -7
-4 -4 -10z"/>
<path d="M3754 3769 c-3 -6 -2 -15 3 -20 5 -5 9 -1 9 11 0 23 -2 24 -12 9z"/>
<path d="M793 2491 c0 -11 5 -18 9 -15 4 3 5 11 1 19 -7 21 -12 19 -10 -4z"/>
<path d="M859 1863 c-13 -16 -12 -17 4 -4 9 7 17 15 17 17 0 8 -8 3 -21 -13z"/>
<path d="M1276 1652 c-3 -5 1 -9 9 -9 8 0 12 4 9 9 -3 4 -7 8 -9 8 -2 0 -6 -4
-9 -8z"/>
<path d="M915 1020 c-3 -5 -1 -10 4 -10 6 0 11 5 11 10 0 6 -2 10 -4 10 -3 0
-8 -4 -11 -10z"/>
<path d="M3785 700 c-3 -5 -1 -10 4 -10 6 0 11 5 11 10 0 6 -2 10 -4 10 -3 0
-8 -4 -11 -10z"/>
<path d="M440 439 c0 -5 5 -7 10 -4 6 3 10 8 10 11 0 2 -4 4 -10 4 -5 0 -10
-5 -10 -11z"/>
<path d="M3910 353 c5 -2 8 -9 5 -13 -3 -5 -1 -11 4 -14 5 -4 8 2 7 11 -2 9
-8 18 -15 19 -6 1 -7 0 -1 -3z"/>
</g>
</svg>
